<svg width="160" height="160" viewBox="0 0 160 160" fill="none" xmlns="http://www.w3.org/2000/svg">
<path d="M64 104C86.0914 104 104 86.0914 104 64C104 61.4963 103.77 59.0464 103.33 56.6701C100.954 56.23 98.5037 56 96 56C73.9086 56 56 73.9086 56 96C56 98.5037 56.23 100.954 56.6701 103.33C59.0464 103.77 61.4963 104 64 104Z" fill="white"/>
<path fill-rule="evenodd" clip-rule="evenodd" d="M56.6701 103.33C38.0794 99.887 24 83.5877 24 64C24 41.9086 41.9086 24 64 24C83.5877 24 99.887 38.0794 103.33 56.6701C100.954 56.23 98.5037 56 96 56C73.9086 56 56 73.9086 56 96C56 98.5037 56.23 100.954 56.6701 103.33Z" fill="#82D5C7"/>
<path fill-rule="evenodd" clip-rule="evenodd" d="M63.9999 104C86.0913 104 104 86.0915 104 64.0001C104 61.4964 103.77 59.0464 103.33 56.6702C121.921 60.1131 136 76.4124 136 96.0001C136 118.091 118.091 136 95.9999 136C76.4122 136 60.113 121.921 56.67 103.33C59.0463 103.77 61.4963 104 63.9999 104Z" fill="#82D5C7"/>
</svg>
